<mxfile host="65bd71144e">
    <diagram id="OUF3Tba1tC0PUzbalyhK" name="Page-1">
        <mxGraphModel dx="3634" dy="489" grid="1" gridSize="10" guides="1" tooltips="1" connect="1" arrows="1" fold="1" page="1" pageScale="1" pageWidth="3300" pageHeight="4681" math="0" shadow="0">
            <root>
                <mxCell id="0"/>
                <mxCell id="1" parent="0"/>
                <mxCell id="97" value="" style="group" parent="1" vertex="1" connectable="0">
                    <mxGeometry x="-3020" y="50" width="1980" height="1680" as="geometry"/>
                </mxCell>
                <mxCell id="93" value="" style="whiteSpace=wrap;html=1;" parent="97" vertex="1">
                    <mxGeometry y="50" width="1980" height="1630" as="geometry"/>
                </mxCell>
                <mxCell id="2" value="Employee" style="rounded=0;whiteSpace=wrap;html=1;strokeColor=#18F000;" parent="97" vertex="1">
                    <mxGeometry x="560" y="240" width="160" height="60" as="geometry"/>
                </mxCell>
                <mxCell id="3" value="Gửi email" style="rounded=0;whiteSpace=wrap;html=1;strokeColor=#18F000;" parent="97" vertex="1">
                    <mxGeometry x="580" y="360" width="120" height="60" as="geometry"/>
                </mxCell>
                <mxCell id="12" style="edgeStyle=none;html=1;entryX=0.5;entryY=0;entryDx=0;entryDy=0;strokeColor=#18F000;" parent="97" source="2" target="3" edge="1">
                    <mxGeometry relative="1" as="geometry"/>
                </mxCell>
                <mxCell id="9" value="&lt;span&gt;Gửi email&lt;/span&gt;" style="rhombus;whiteSpace=wrap;html=1;strokeColor=#18F000;" parent="97" vertex="1">
                    <mxGeometry x="600" y="480" width="80" height="80" as="geometry"/>
                </mxCell>
                <mxCell id="13" style="edgeStyle=none;html=1;entryX=0.5;entryY=0;entryDx=0;entryDy=0;strokeColor=#18F000;" parent="97" source="3" target="9" edge="1">
                    <mxGeometry relative="1" as="geometry"/>
                </mxCell>
                <mxCell id="21" value="Pending" style="rounded=0;whiteSpace=wrap;html=1;strokeColor=#18F000;" parent="97" vertex="1">
                    <mxGeometry x="870" y="710" width="120" height="60" as="geometry"/>
                </mxCell>
                <mxCell id="26" style="edgeStyle=none;html=1;exitX=1;exitY=0.5;exitDx=0;exitDy=0;entryX=0.5;entryY=1;entryDx=0;entryDy=0;strokeColor=#18F000;" parent="97" source="22" target="21" edge="1">
                    <mxGeometry relative="1" as="geometry">
                        <Array as="points">
                            <mxPoint x="930" y="820"/>
                        </Array>
                    </mxGeometry>
                </mxCell>
                <mxCell id="22" value="sent_at = now" style="rounded=0;whiteSpace=wrap;html=1;strokeColor=#18F000;" parent="97" vertex="1">
                    <mxGeometry x="670" y="790" width="120" height="60" as="geometry"/>
                </mxCell>
                <mxCell id="19" style="edgeStyle=none;html=1;exitX=0.5;exitY=1;exitDx=0;exitDy=0;entryX=0;entryY=0.5;entryDx=0;entryDy=0;strokeColor=#18F000;" parent="97" source="9" target="22" edge="1">
                    <mxGeometry relative="1" as="geometry">
                        <mxPoint x="640.2941176470588" y="670" as="targetPoint"/>
                        <Array as="points">
                            <mxPoint x="640" y="820"/>
                        </Array>
                    </mxGeometry>
                </mxCell>
                <mxCell id="20" value="Send now&lt;br&gt;" style="edgeLabel;html=1;align=center;verticalAlign=middle;resizable=0;points=[];strokeColor=#18F000;" parent="19" vertex="1" connectable="0">
                    <mxGeometry x="0.1774" y="-4" relative="1" as="geometry">
                        <mxPoint as="offset"/>
                    </mxGeometry>
                </mxCell>
                <mxCell id="25" style="edgeStyle=none;html=1;strokeColor=#18F000;" parent="97" source="24" target="21" edge="1">
                    <mxGeometry relative="1" as="geometry"/>
                </mxCell>
                <mxCell id="24" value="sent_at = now" style="rounded=0;whiteSpace=wrap;html=1;strokeColor=#18F000;" parent="97" vertex="1">
                    <mxGeometry x="870" y="590" width="120" height="60" as="geometry"/>
                </mxCell>
                <mxCell id="14" style="edgeStyle=none;html=1;entryX=0.5;entryY=0;entryDx=0;entryDy=0;strokeColor=#18F000;" parent="97" source="9" target="24" edge="1">
                    <mxGeometry relative="1" as="geometry">
                        <mxPoint x="1000" y="520" as="targetPoint"/>
                        <Array as="points">
                            <mxPoint x="929" y="520"/>
                        </Array>
                    </mxGeometry>
                </mxCell>
                <mxCell id="15" value="Gửi set time" style="edgeLabel;html=1;align=center;verticalAlign=middle;resizable=0;points=[];strokeColor=#18F000;" parent="14" vertex="1" connectable="0">
                    <mxGeometry x="-0.3037" y="3" relative="1" as="geometry">
                        <mxPoint as="offset"/>
                    </mxGeometry>
                </mxCell>
                <mxCell id="33" style="edgeStyle=none;html=1;strokeColor=#18F000;" parent="97" source="27" edge="1">
                    <mxGeometry relative="1" as="geometry">
                        <mxPoint x="1420" y="740" as="targetPoint"/>
                    </mxGeometry>
                </mxCell>
                <mxCell id="34" value="false" style="edgeLabel;html=1;align=center;verticalAlign=middle;resizable=0;points=[];strokeColor=#18F000;" parent="33" vertex="1" connectable="0">
                    <mxGeometry x="0.2095" y="3" relative="1" as="geometry">
                        <mxPoint as="offset"/>
                    </mxGeometry>
                </mxCell>
                <mxCell id="27" value="Sent_at &amp;gt; now" style="rhombus;whiteSpace=wrap;html=1;strokeColor=#18F000;" parent="97" vertex="1">
                    <mxGeometry x="1080" y="700" width="130" height="80" as="geometry"/>
                </mxCell>
                <mxCell id="28" style="edgeStyle=none;html=1;entryX=0;entryY=0.5;entryDx=0;entryDy=0;strokeColor=#18F000;" parent="97" source="21" target="27" edge="1">
                    <mxGeometry relative="1" as="geometry"/>
                </mxCell>
                <mxCell id="32" value="Người dùng có thể hủy email khi nhấn cancel" style="whiteSpace=wrap;html=1;aspect=fixed;strokeColor=#18F000;" parent="97" vertex="1">
                    <mxGeometry x="1095" y="910" width="105" height="105" as="geometry"/>
                </mxCell>
                <mxCell id="30" style="edgeStyle=none;html=1;entryX=0.5;entryY=0;entryDx=0;entryDy=0;strokeColor=#18F000;" parent="97" source="27" target="32" edge="1">
                    <mxGeometry relative="1" as="geometry">
                        <mxPoint x="1145" y="1001.88232421875" as="targetPoint"/>
                    </mxGeometry>
                </mxCell>
                <mxCell id="31" value="True" style="edgeLabel;html=1;align=center;verticalAlign=middle;resizable=0;points=[];strokeColor=#18F000;" parent="30" vertex="1" connectable="0">
                    <mxGeometry x="-0.3547" y="-4" relative="1" as="geometry">
                        <mxPoint as="offset"/>
                    </mxGeometry>
                </mxCell>
                <mxCell id="35" value="Không hiện cancel" style="rounded=0;whiteSpace=wrap;html=1;strokeColor=#18F000;" parent="97" vertex="1">
                    <mxGeometry x="1420" y="710" width="120" height="60" as="geometry"/>
                </mxCell>
                <mxCell id="42" value="Manager approve" style="rhombus;whiteSpace=wrap;html=1;strokeColor=#18F000;" parent="97" vertex="1">
                    <mxGeometry x="880" y="950" width="160" height="80" as="geometry"/>
                </mxCell>
                <mxCell id="40" style="edgeStyle=none;html=1;exitX=0.75;exitY=1;exitDx=0;exitDy=0;entryX=0.5;entryY=0;entryDx=0;entryDy=0;strokeColor=#18F000;" parent="97" source="21" target="42" edge="1">
                    <mxGeometry relative="1" as="geometry">
                        <mxPoint x="960.2941176470588" y="950" as="targetPoint"/>
                    </mxGeometry>
                </mxCell>
                <mxCell id="47" value="Hiện modal có approved now&lt;br&gt;và Approved set time, input chọn số phút" style="rounded=0;whiteSpace=wrap;html=1;strokeColor=#18F000;" parent="97" vertex="1">
                    <mxGeometry x="470" y="960" width="170" height="70" as="geometry"/>
                </mxCell>
                <mxCell id="43" style="edgeStyle=none;html=1;entryX=1;entryY=0.5;entryDx=0;entryDy=0;strokeColor=#18F000;" parent="97" source="42" target="47" edge="1">
                    <mxGeometry relative="1" as="geometry">
                        <mxPoint x="650" y="990" as="targetPoint"/>
                        <Array as="points">
                            <mxPoint x="740" y="990"/>
                            <mxPoint x="710" y="990"/>
                        </Array>
                    </mxGeometry>
                </mxCell>
                <mxCell id="44" value="APPROVED" style="edgeLabel;html=1;align=center;verticalAlign=middle;resizable=0;points=[];strokeColor=#18F000;" parent="43" vertex="1" connectable="0">
                    <mxGeometry x="-0.2824" y="3" relative="1" as="geometry">
                        <mxPoint as="offset"/>
                    </mxGeometry>
                </mxCell>
                <mxCell id="48" value="Email Status declined" style="rounded=0;whiteSpace=wrap;html=1;strokeColor=#18F000;" parent="97" vertex="1">
                    <mxGeometry x="885" y="1210" width="150" height="60" as="geometry"/>
                </mxCell>
                <mxCell id="45" style="edgeStyle=none;html=1;entryX=0.5;entryY=0;entryDx=0;entryDy=0;strokeColor=#18F000;" parent="97" source="42" target="48" edge="1">
                    <mxGeometry relative="1" as="geometry">
                        <mxPoint x="960" y="1190" as="targetPoint"/>
                    </mxGeometry>
                </mxCell>
                <mxCell id="46" value="DECLINED" style="edgeLabel;html=1;align=center;verticalAlign=middle;resizable=0;points=[];strokeColor=#18F000;" parent="45" vertex="1" connectable="0">
                    <mxGeometry x="-0.2625" y="2" relative="1" as="geometry">
                        <mxPoint as="offset"/>
                    </mxGeometry>
                </mxCell>
                <mxCell id="53" value="Is Send now" style="rhombus;whiteSpace=wrap;html=1;strokeColor=#18F000;" parent="97" vertex="1">
                    <mxGeometry x="505" y="1120" width="95" height="80" as="geometry"/>
                </mxCell>
                <mxCell id="52" style="edgeStyle=none;html=1;strokeColor=#18F000;" parent="97" source="47" target="53" edge="1">
                    <mxGeometry relative="1" as="geometry">
                        <mxPoint x="555" y="1270" as="targetPoint"/>
                    </mxGeometry>
                </mxCell>
                <mxCell id="56" value="Send_after = 0" style="rounded=0;whiteSpace=wrap;html=1;strokeColor=#18F000;" parent="97" vertex="1">
                    <mxGeometry x="490" y="1320" width="120" height="60" as="geometry"/>
                </mxCell>
                <mxCell id="54" style="edgeStyle=none;html=1;strokeColor=#18F000;" parent="97" source="53" target="56" edge="1">
                    <mxGeometry relative="1" as="geometry">
                        <mxPoint x="550" y="1350" as="targetPoint"/>
                    </mxGeometry>
                </mxCell>
                <mxCell id="55" value="true" style="edgeLabel;html=1;align=center;verticalAlign=middle;resizable=0;points=[];strokeColor=#18F000;" parent="54" vertex="1" connectable="0">
                    <mxGeometry x="-0.3955" y="-1" relative="1" as="geometry">
                        <mxPoint as="offset"/>
                    </mxGeometry>
                </mxCell>
                <mxCell id="58" value="Send after = số phút người dùng nhập" style="rounded=0;whiteSpace=wrap;html=1;strokeColor=#18F000;" parent="97" vertex="1">
                    <mxGeometry x="680" y="1290" width="120" height="60" as="geometry"/>
                </mxCell>
                <mxCell id="57" style="edgeStyle=none;html=1;strokeColor=#18F000;" parent="97" source="53" target="58" edge="1">
                    <mxGeometry relative="1" as="geometry">
                        <mxPoint x="740" y="1320" as="targetPoint"/>
                        <Array as="points">
                            <mxPoint x="720" y="1160"/>
                        </Array>
                    </mxGeometry>
                </mxCell>
                <mxCell id="59" value="Email Approved" style="rounded=0;whiteSpace=wrap;html=1;strokeColor=#18F000;" parent="97" vertex="1">
                    <mxGeometry x="670" y="1490" width="120" height="60" as="geometry"/>
                </mxCell>
                <mxCell id="60" style="edgeStyle=none;html=1;entryX=0;entryY=0.5;entryDx=0;entryDy=0;strokeColor=#18F000;" parent="97" source="56" target="59" edge="1">
                    <mxGeometry relative="1" as="geometry">
                        <Array as="points">
                            <mxPoint x="530" y="1510"/>
                        </Array>
                    </mxGeometry>
                </mxCell>
                <mxCell id="61" style="edgeStyle=none;html=1;entryX=0.579;entryY=-0.025;entryDx=0;entryDy=0;entryPerimeter=0;strokeColor=#18F000;" parent="97" source="58" target="59" edge="1">
                    <mxGeometry relative="1" as="geometry"/>
                </mxCell>
                <mxCell id="63" value="Send_at &amp;gt; now" style="rhombus;whiteSpace=wrap;html=1;strokeColor=#18F000;" parent="97" vertex="1">
                    <mxGeometry x="910" y="1480" width="110" height="80" as="geometry"/>
                </mxCell>
                <mxCell id="62" style="edgeStyle=none;html=1;strokeColor=#18F000;" parent="97" source="59" target="63" edge="1">
                    <mxGeometry relative="1" as="geometry">
                        <mxPoint x="950" y="1520" as="targetPoint"/>
                    </mxGeometry>
                </mxCell>
                <mxCell id="67" value="Hiện undo và send now" style="rounded=0;whiteSpace=wrap;html=1;strokeColor=#18F000;" parent="97" vertex="1">
                    <mxGeometry x="1050" y="1390.004827586207" width="120" height="60" as="geometry"/>
                </mxCell>
                <mxCell id="64" style="edgeStyle=none;html=1;strokeColor=#18F000;" parent="97" source="63" target="67" edge="1">
                    <mxGeometry relative="1" as="geometry">
                        <mxPoint x="1070" y="1440.344827586207" as="targetPoint"/>
                    </mxGeometry>
                </mxCell>
                <mxCell id="65" value="true" style="edgeLabel;html=1;align=center;verticalAlign=middle;resizable=0;points=[];strokeColor=#18F000;" parent="64" vertex="1" connectable="0">
                    <mxGeometry x="0.3849" y="-1" relative="1" as="geometry">
                        <mxPoint as="offset"/>
                    </mxGeometry>
                </mxCell>
                <mxCell id="70" value="Không hiện thanh chọn undo và send now" style="rounded=0;whiteSpace=wrap;html=1;strokeColor=#18F000;" parent="97" vertex="1">
                    <mxGeometry x="1110" y="1520" width="120" height="60" as="geometry"/>
                </mxCell>
                <mxCell id="68" style="edgeStyle=none;html=1;strokeColor=#18F000;" parent="97" source="63" target="70" edge="1">
                    <mxGeometry relative="1" as="geometry">
                        <mxPoint x="1130" y="1580" as="targetPoint"/>
                    </mxGeometry>
                </mxCell>
                <mxCell id="69" value="false" style="edgeLabel;html=1;align=center;verticalAlign=middle;resizable=0;points=[];strokeColor=#18F000;" parent="68" vertex="1" connectable="0">
                    <mxGeometry x="0.2028" y="-1" relative="1" as="geometry">
                        <mxPoint as="offset"/>
                    </mxGeometry>
                </mxCell>
                <mxCell id="75" value="SHOW EMAIL APPROVED" style="whiteSpace=wrap;html=1;strokeColor=#18F000;" parent="97" vertex="1">
                    <mxGeometry x="660" y="890" width="120" height="60" as="geometry"/>
                </mxCell>
                <mxCell id="77" style="edgeStyle=none;html=1;entryX=0.5;entryY=1;entryDx=0;entryDy=0;strokeColor=#18F000;" parent="97" source="42" target="75" edge="1">
                    <mxGeometry relative="1" as="geometry">
                        <Array as="points">
                            <mxPoint x="730" y="990"/>
                        </Array>
                    </mxGeometry>
                </mxCell>
                <mxCell id="80" value="Send_at &amp;gt; now" style="rhombus;whiteSpace=wrap;html=1;strokeColor=#18F000;" parent="97" vertex="1">
                    <mxGeometry x="460" y="830" width="100" height="80" as="geometry"/>
                </mxCell>
                <mxCell id="79" style="edgeStyle=none;html=1;strokeColor=#18F000;" parent="97" source="75" target="80" edge="1">
                    <mxGeometry relative="1" as="geometry">
                        <mxPoint x="550" y="910" as="targetPoint"/>
                    </mxGeometry>
                </mxCell>
                <mxCell id="83" value="Hiện Email sẽ được gửi trong send_at - now" style="rounded=0;whiteSpace=wrap;html=1;strokeColor=#18F000;" parent="97" vertex="1">
                    <mxGeometry x="450" y="670" width="120" height="60" as="geometry"/>
                </mxCell>
                <mxCell id="81" style="edgeStyle=none;html=1;strokeColor=#18F000;" parent="97" source="80" target="83" edge="1">
                    <mxGeometry relative="1" as="geometry">
                        <mxPoint x="510" y="700" as="targetPoint"/>
                    </mxGeometry>
                </mxCell>
                <mxCell id="82" value="True" style="edgeLabel;html=1;align=center;verticalAlign=middle;resizable=0;points=[];strokeColor=#18F000;" parent="81" vertex="1" connectable="0">
                    <mxGeometry x="0.4031" y="-4" relative="1" as="geometry">
                        <mxPoint as="offset"/>
                    </mxGeometry>
                </mxCell>
                <mxCell id="85" value="Hiện Email Đã được gửi" style="rounded=0;whiteSpace=wrap;html=1;strokeColor=#18F000;" parent="97" vertex="1">
                    <mxGeometry x="270" y="770" width="120" height="60" as="geometry"/>
                </mxCell>
                <mxCell id="84" style="edgeStyle=none;html=1;strokeColor=#18F000;" parent="97" source="80" target="85" edge="1">
                    <mxGeometry relative="1" as="geometry">
                        <mxPoint x="330" y="860" as="targetPoint"/>
                    </mxGeometry>
                </mxCell>
                <mxCell id="86" value="false" style="edgeLabel;html=1;align=center;verticalAlign=middle;resizable=0;points=[];strokeColor=#18F000;" parent="84" vertex="1" connectable="0">
                    <mxGeometry x="-0.415" y="4" relative="1" as="geometry">
                        <mxPoint as="offset"/>
                    </mxGeometry>
                </mxCell>
                <mxCell id="89" value="Gội API status = APPROVED, send_after=0" style="rounded=0;whiteSpace=wrap;html=1;strokeColor=#18F000;" parent="97" vertex="1">
                    <mxGeometry x="1350" y="1390.004827586207" width="120" height="60" as="geometry"/>
                </mxCell>
                <mxCell id="87" style="edgeStyle=none;html=1;strokeColor=#18F000;" parent="97" source="67" target="89" edge="1">
                    <mxGeometry relative="1" as="geometry">
                        <mxPoint x="1380" y="1420.004827586207" as="targetPoint"/>
                    </mxGeometry>
                </mxCell>
                <mxCell id="88" value="Ấn SEND" style="edgeLabel;html=1;align=center;verticalAlign=middle;resizable=0;points=[];strokeColor=#18F000;" parent="87" vertex="1" connectable="0">
                    <mxGeometry x="0.2706" y="-2" relative="1" as="geometry">
                        <mxPoint as="offset"/>
                    </mxGeometry>
                </mxCell>
                <mxCell id="92" value="" style="rounded=0;whiteSpace=wrap;html=1;strokeColor=#18F000;" parent="97" vertex="1">
                    <mxGeometry x="1350" y="1290" width="120" height="60" as="geometry"/>
                </mxCell>
                <mxCell id="90" style="edgeStyle=none;html=1;strokeColor=#18F000;" parent="97" source="67" target="92" edge="1">
                    <mxGeometry relative="1" as="geometry">
                        <mxPoint x="1320" y="1330" as="targetPoint"/>
                    </mxGeometry>
                </mxCell>
                <mxCell id="91" value="Ấn undo" style="edgeLabel;html=1;align=center;verticalAlign=middle;resizable=0;points=[];strokeColor=#18F000;" parent="90" vertex="1" connectable="0">
                    <mxGeometry x="0.263" y="-3" relative="1" as="geometry">
                        <mxPoint x="-1" as="offset"/>
                    </mxGeometry>
                </mxCell>
                <mxCell id="96" value="&lt;h1&gt;&lt;span&gt;&lt;font style=&quot;font-size: 48px&quot;&gt;Luồng gửi nhận&lt;/font&gt;&lt;/span&gt;&lt;br&gt;&lt;/h1&gt;" style="text;html=1;strokeColor=#00002A;fillColor=none;spacing=5;spacingTop=-20;whiteSpace=wrap;overflow=hidden;rounded=0;fontSize=48;" parent="97" vertex="1">
                    <mxGeometry x="40" width="970" height="240" as="geometry"/>
                </mxCell>
                <mxCell id="144" value="" style="group" parent="1" vertex="1" connectable="0">
                    <mxGeometry x="-3160" y="1900" width="2310" height="1660" as="geometry"/>
                </mxCell>
                <mxCell id="142" value="" style="rounded=0;whiteSpace=wrap;html=1;" parent="144" vertex="1">
                    <mxGeometry x="10" y="10" width="2290" height="1650" as="geometry"/>
                </mxCell>
                <mxCell id="99" value="&lt;font style=&quot;font-size: 24px&quot;&gt;Viết Email&lt;/font&gt;" style="rounded=0;whiteSpace=wrap;html=1;fontSize=48;strokeColor=#00CC00;" parent="144" vertex="1">
                    <mxGeometry x="264.9082568807339" y="311.77474402730377" width="190.73394495412848" height="129.01023890784984" as="geometry"/>
                </mxCell>
                <mxCell id="101" value="&lt;font style=&quot;font-size: 24px&quot;&gt;Email mới (Không có ID)&lt;/font&gt;" style="rhombus;whiteSpace=wrap;html=1;fontSize=48;" parent="144" vertex="1">
                    <mxGeometry x="964.2660550458717" y="279.52218430034134" width="349.67889908256876" height="193.51535836177476" as="geometry"/>
                </mxCell>
                <mxCell id="105" value="Tạo Email mới + đổi status thành DRAFT" style="rounded=0;whiteSpace=wrap;html=1;fontSize=24;" parent="144" vertex="1">
                    <mxGeometry x="1811.9724770642201" y="344.0273037542663" width="254.3119266055046" height="86.00682593856658" as="geometry"/>
                </mxCell>
                <mxCell id="102" value="true" style="edgeStyle=none;html=1;fontSize=24;entryX=0;entryY=0.5;entryDx=0;entryDy=0;" parent="144" source="101" target="105" edge="1">
                    <mxGeometry relative="1" as="geometry">
                        <mxPoint x="1621.2385321100917" y="387.0307167235495" as="targetPoint"/>
                    </mxGeometry>
                </mxCell>
                <mxCell id="109" value="Update Email data với ID" style="rounded=0;whiteSpace=wrap;html=1;fontSize=24;" parent="144" vertex="1">
                    <mxGeometry x="980.1605504587155" y="677.3037542662115" width="333.7844036697247" height="107.50853242320818" as="geometry"/>
                </mxCell>
                <mxCell id="107" style="edgeStyle=none;html=1;fontSize=24;" parent="144" source="101" target="109" edge="1">
                    <mxGeometry relative="1" as="geometry">
                        <mxPoint x="1033.1422018348624" y="677.3037542662115" as="targetPoint"/>
                    </mxGeometry>
                </mxCell>
                <mxCell id="108" value="false" style="edgeLabel;html=1;align=center;verticalAlign=middle;resizable=0;points=[];fontSize=24;" parent="107" vertex="1" connectable="0">
                    <mxGeometry x="-0.2914" y="-5" relative="1" as="geometry">
                        <mxPoint as="offset"/>
                    </mxGeometry>
                </mxCell>
                <mxCell id="112" style="edgeStyle=none;html=1;entryX=0;entryY=0.5;entryDx=0;entryDy=0;fontSize=24;" parent="144" source="110" target="101" edge="1">
                    <mxGeometry relative="1" as="geometry"/>
                </mxCell>
                <mxCell id="110" value="Sau 5s thay đổi&amp;nbsp;" style="rounded=0;whiteSpace=wrap;html=1;fontSize=24;" parent="144" vertex="1">
                    <mxGeometry x="603.9908256880733" y="333.27645051194537" width="233.11926605504587" height="86.00682593856658" as="geometry"/>
                </mxCell>
                <mxCell id="111" style="edgeStyle=none;html=1;entryX=0;entryY=0.5;entryDx=0;entryDy=0;fontSize=24;" parent="144" source="99" target="110" edge="1">
                    <mxGeometry relative="1" as="geometry"/>
                </mxCell>
                <mxCell id="114" value="GỬI" style="rounded=0;whiteSpace=wrap;html=1;fontSize=24;" parent="144" vertex="1">
                    <mxGeometry x="1886.1467889908256" y="677.3037542662115" width="190.73394495412848" height="96.75767918088738" as="geometry"/>
                </mxCell>
                <mxCell id="115" style="edgeStyle=none;html=1;fontSize=24;" parent="144" source="105" target="114" edge="1">
                    <mxGeometry relative="1" as="geometry"/>
                </mxCell>
                <mxCell id="113" style="edgeStyle=none;html=1;fontSize=24;" parent="144" source="109" target="114" edge="1">
                    <mxGeometry relative="1" as="geometry">
                        <mxPoint x="1653.0275229357799" y="741.8088737201365" as="targetPoint"/>
                    </mxGeometry>
                </mxCell>
                <mxCell id="117" value="Xóa Email draft" style="rounded=0;whiteSpace=wrap;html=1;fontSize=24;" parent="144" vertex="1">
                    <mxGeometry x="1875.550458715596" y="903.0716723549489" width="201.3302752293578" height="139.76109215017067" as="geometry"/>
                </mxCell>
                <mxCell id="116" style="edgeStyle=none;html=1;fontSize=24;" parent="144" source="114" target="117" edge="1">
                    <mxGeometry relative="1" as="geometry">
                        <mxPoint x="1981.51376146789" y="935.3242320819114" as="targetPoint"/>
                    </mxGeometry>
                </mxCell>
                <mxCell id="119" value="Minimize Email" style="rounded=0;whiteSpace=wrap;html=1;fontSize=24;strokeColor=#00CC00;" parent="144" vertex="1">
                    <mxGeometry x="222.52293577981652" y="559.0443686006827" width="275.5045871559633" height="96.75767918088738" as="geometry"/>
                </mxCell>
                <mxCell id="118" style="edgeStyle=none;html=1;fontSize=24;" parent="144" source="99" target="119" edge="1">
                    <mxGeometry relative="1" as="geometry">
                        <mxPoint x="360.2752293577982" y="731.0580204778157" as="targetPoint"/>
                    </mxGeometry>
                </mxCell>
                <mxCell id="122" value="Email đã được minize rồi&lt;br&gt;(kiểm tra trường showMinimizeEmailId trong redux" style="rhombus;whiteSpace=wrap;html=1;fontSize=24;strokeColor=#00CC00;" parent="144" vertex="1">
                    <mxGeometry x="105.96330275229359" y="956.825938566553" width="508.6238532110092" height="290.2730375426621" as="geometry"/>
                </mxCell>
                <mxCell id="121" style="edgeStyle=none;html=1;fontSize=24;entryX=0.5;entryY=0;entryDx=0;entryDy=0;" parent="144" source="119" target="122" edge="1">
                    <mxGeometry relative="1" as="geometry">
                        <mxPoint x="344.67184191954794" y="722.1974271462325" as="targetPoint"/>
                    </mxGeometry>
                </mxCell>
                <mxCell id="125" value="setShowMinimizeEmail trong redux thành undefined" style="rounded=0;whiteSpace=wrap;html=1;fontSize=24;" parent="144" vertex="1">
                    <mxGeometry x="143.0504587155963" y="1354.607508532423" width="434.44954128440367" height="220.39249146757683" as="geometry"/>
                </mxCell>
                <mxCell id="123" style="edgeStyle=none;html=1;fontSize=24;" parent="144" source="122" target="125" edge="1">
                    <mxGeometry relative="1" as="geometry">
                        <mxPoint x="360.2752293577982" y="1386.8600682593856" as="targetPoint"/>
                    </mxGeometry>
                </mxCell>
                <mxCell id="124" value="true" style="edgeLabel;html=1;align=center;verticalAlign=middle;resizable=0;points=[];fontSize=24;" parent="123" vertex="1" connectable="0">
                    <mxGeometry x="-0.24" y="2" relative="1" as="geometry">
                        <mxPoint as="offset"/>
                    </mxGeometry>
                </mxCell>
                <mxCell id="137" value="Gọi hàm lưu DRAFT của hook auto store draft với ID tạm Date.now()" style="rounded=0;whiteSpace=wrap;html=1;fontSize=24;strokeColor=#00FF80;" parent="144" vertex="1">
                    <mxGeometry x="784.1284403669724" y="1018.6433447098976" width="423.85321100917434" height="166.63822525597269" as="geometry"/>
                </mxCell>
                <mxCell id="126" style="edgeStyle=none;html=1;fontSize=24;exitX=1;exitY=0.5;exitDx=0;exitDy=0;entryX=0;entryY=0.5;entryDx=0;entryDy=0;" parent="144" source="122" target="137" edge="1">
                    <mxGeometry relative="1" as="geometry">
                        <mxPoint x="879.4954128440367" y="1204.095563139932" as="targetPoint"/>
                        <mxPoint x="741.743119266055" y="1085.8361774744028" as="sourcePoint"/>
                    </mxGeometry>
                </mxCell>
                <mxCell id="127" value="false" style="edgeLabel;html=1;align=center;verticalAlign=middle;resizable=0;points=[];fontSize=24;" parent="126" vertex="1" connectable="0">
                    <mxGeometry x="0.2615" y="6" relative="1" as="geometry">
                        <mxPoint as="offset"/>
                    </mxGeometry>
                </mxCell>
                <mxCell id="141" value="Hàm thấy lưu draft thấy id tạm, sau khi tạo draft xong thì lấy id cập nhật trên redux xem email đang được minimize&amp;nbsp; nào có id tạm đó thì gán lại id, đồng thời kiểm tra xem showMinimizedEmail có đang là id đó không thi cập nhật lại luôn" style="rounded=0;whiteSpace=wrap;html=1;fontSize=24;" parent="144" vertex="1">
                    <mxGeometry x="1292.7522935779816" y="1247.098976109215" width="476.8348623853211" height="247.26962457337888" as="geometry"/>
                </mxCell>
                <mxCell id="138" style="edgeStyle=none;html=1;fontSize=24;" parent="144" source="137" target="141" edge="1">
                    <mxGeometry relative="1" as="geometry">
                        <mxPoint x="1536.467889908257" y="1182.5938566552902" as="targetPoint"/>
                    </mxGeometry>
                </mxCell>
                <mxCell id="143" value="&lt;h1&gt;&lt;font style=&quot;font-size: 48px&quot;&gt;Luồng lưu email vô draft&lt;/font&gt;&lt;/h1&gt;" style="text;html=1;strokeColor=none;fillColor=none;spacing=5;spacingTop=-20;whiteSpace=wrap;overflow=hidden;rounded=0;" parent="144" vertex="1">
                    <mxGeometry x="60.002660550458714" y="69.99938566552902" width="784.1284403669724" height="182.76450511945393" as="geometry"/>
                </mxCell>
            </root>
        </mxGraphModel>
    </diagram>
</mxfile>